<svg xmlns="http://www.w3.org/2000/svg" width="900" height="1125" viewBox="0 0 900 1125"><defs><linearGradient id="g" x1="0" y1="0" x2="1" y2="1"><stop stop-color="#031c12"/><stop offset=".62" stop-color="#087333"/><stop offset="1" stop-color="#0a4327"/></linearGradient><radialGradient id="r"><stop stop-color="#52f294" stop-opacity=".45"/><stop offset="1" stop-color="#52f294" stop-opacity="0"/></radialGradient></defs><rect width="900" height="1125" rx="44" fill="url(#g)"/><circle cx="760" cy="200" r="360" fill="url(#r)"/><g opacity=".12" stroke="#fff"><path d="M0 180H900M0 360H900M0 540H900M0 720H900M0 900H900"/><path d="M180 0V1125M360 0V1125M540 0V1125M720 0V1125"/></g><rect x="70" y="72" width="152" height="42" rx="21" fill="#ffc400"/><text x="146" y="100" text-anchor="middle" font-family="Arial" font-size="18" font-weight="700" fill="#102018">RESULTS</text><text x="70" y="330" font-family="Arial" font-size="92" font-weight="800" fill="#fff">EA</text><text x="70" y="390" font-family="Arial" font-size="28" font-weight="700" fill="#a8d7ba">STUDENT ACHIEVEMENTS</text><rect x="70" y="725" width="760" height="250" rx="30" fill="#fff" fill-opacity=".08" stroke="#fff" stroke-opacity=".15"/><text x="110" y="800" font-family="Arial" font-size="24" font-weight="700" fill="#fff">UPLOAD APPROVED RESULT POSTER</text><text x="110" y="850" font-family="Arial" font-size="21" fill="#c8ded0">Replace this placeholder from the Logic CMS.</text><text x="110" y="920" font-family="Arial" font-size="18" fill="#ffc400">Media Library → choose image → save</text><text x="70" y="1040" font-family="Arial" font-size="22" font-weight="700" fill="#fff">LOGIC SCHOOL OF MANAGEMENT</text></svg>