<?xml version="1.0" encoding="UTF-8"?>
<svg id="Layer_1" data-name="Layer 1" xmlns="http://www.w3.org/2000/svg" viewBox="0 0 128 128">
  <defs>
    <style>
      .cls-1 {
        fill: #fff;
      }
    </style>
  </defs>
  <circle cx="64" cy="64" r="63.88"/>
  <g>
    <path class="cls-1" d="M38.41,49.04h10.98v35.28h-10.98v-35.28ZM43.9,31.51c3.51,0,6.36,2.85,6.36,6.35s-2.85,6.36-6.36,6.36-6.37-2.85-6.37-6.36,2.85-6.35,6.37-6.35"/>
    <path class="cls-1" d="M56.27,49.04h10.52v4.83h.14c1.47-2.78,5.04-5.7,10.38-5.7,11.1,0,13.15,7.3,13.15,16.8v19.35h-10.96v-17.15c0-4.09-.08-9.36-5.7-9.36s-6.58,4.46-6.58,9.06v17.45h-10.96v-35.28Z"/>
  </g>
</svg>